<?xml version="1.0" standalone="no"?>
<!DOCTYPE svg PUBLIC "-//W3C//DTD SVG 20010904//EN"
 "http://www.w3.org/TR/2001/REC-SVG-20010904/DTD/svg10.dtd">
<svg version="1.0" xmlns="http://www.w3.org/2000/svg"
 width="512.000000pt" height="512.000000pt" viewBox="0 0 512.000000 512.000000"
 preserveAspectRatio="xMidYMid meet">
<metadata>
Created by potrace 1.16, written by Peter Selinger 2001-2019
</metadata>
<g transform="translate(0.000000,512.000000) scale(0.100000,-0.100000)"
fill="#2684ff" stroke="none">
<path d="M574 5100 c-273 -72 -484 -288 -554 -567 -20 -78 -21 -104 -18 -595
l3 -513 28 -80 c71 -203 208 -360 392 -451 161 -79 150 -78 684 -82 312 -2
498 1 545 8 160 25 304 98 421 214 89 89 141 167 181 276 53 140 56 187 52
705 -4 453 -5 473 -27 545 -36 119 -96 223 -185 317 -92 98 -191 163 -314 207
l-87 31 -525 2 c-487 2 -530 1 -596 -17z"/>
<path d="M3390 5099 c-262 -67 -470 -271 -551 -539 -22 -73 -23 -91 -27 -552
-3 -405 -1 -491 13 -563 61 -325 317 -575 641 -625 47 -7 233 -10 545 -8 534
4 523 3 684 82 184 91 321 248 392 451 l28 80 3 513 c3 491 2 517 -18 595 -58
232 -200 407 -419 517 -136 68 -157 70 -715 69 -463 0 -507 -2 -576 -20z"/>
<path d="M629 2295 c-151 -28 -276 -93 -391 -203 -93 -89 -159 -190 -202 -310
l-31 -87 -3 -513 c-3 -491 -2 -517 18 -595 60 -238 205 -414 431 -522 135 -65
155 -66 729 -63 l515 3 87 31 c240 86 426 281 499 524 22 72 23 92 27 545 4
505 0 563 -45 690 -83 233 -275 411 -523 486 -73 22 -90 23 -555 25 -380 2
-496 0 -556 -11z"/>
<path d="M3461 2299 c-85 -13 -222 -65 -296 -114 -80 -52 -192 -166 -238 -242
-49 -80 -92 -198 -107 -293 -8 -53 -10 -213 -8 -545 5 -529 3 -520 82 -680
100 -203 282 -350 500 -405 74 -19 112 -20 576 -20 553 0 575 2 711 70 219
110 361 285 419 517 20 78 21 104 18 595 l-3 513 -31 87 c-69 192 -212 356
-386 441 -162 80 -160 80 -698 83 -261 1 -504 -2 -539 -7z"/>
</g>
</svg>
