<?xml version="1.0" standalone="no"?>
<!DOCTYPE svg PUBLIC "-//W3C//DTD SVG 20010904//EN"
 "http://www.w3.org/TR/2001/REC-SVG-20010904/DTD/svg10.dtd">
<svg version="1.0" xmlns="http://www.w3.org/2000/svg"
 width="512.000000pt" height="512.000000pt" viewBox="0 0 512.000000 512.000000"
 preserveAspectRatio="xMidYMid meet">
<metadata>
Created by potrace 1.16, written by Peter Selinger 2001-2019
</metadata>
<g transform="translate(0.000000,512.000000) scale(0.100000,-0.100000)"
fill="rgb(255, 116, 82)" stroke="none">
<path d="M2265 5109 c-487 -60 -917 -239 -1310 -547 -104 -82 -350 -334 -431
-442 -267 -357 -434 -745 -501 -1170 -26 -164 -26 -616 0 -780 82 -519 319
-998 680 -1376 394 -412 874 -667 1441 -766 174 -30 543 -37 727 -13 1188 149
2110 1084 2239 2272 16 145 8 533 -14 667 -184 1134 -1088 2011 -2216 2151
-135 16 -493 19 -615 4z m401 -1094 c27 -16 54 -44 71 -73 l28 -47 3 -680 2
-680 514 -515 c283 -283 521 -529 530 -547 9 -18 16 -56 16 -86 0 -144 -140
-244 -273 -193 -33 12 -157 131 -614 588 -504 506 -573 578 -582 615 -8 29
-11 264 -9 770 l3 728 27 47 c61 102 181 133 284 73z"/>
</g>
</svg>
