<?xml version="1.0" standalone="no"?>
<!DOCTYPE svg PUBLIC "-//W3C//DTD SVG 20010904//EN"
 "http://www.w3.org/TR/2001/REC-SVG-20010904/DTD/svg10.dtd">
<svg version="1.0" xmlns="http://www.w3.org/2000/svg"
 width="512.000000pt" height="512.000000pt" viewBox="0 0 512.000000 512.000000"
 preserveAspectRatio="xMidYMid meet">
<metadata>
Created by potrace 1.16, written by Peter Selinger 2001-2019
</metadata>
<g transform="translate(0.000000,512.000000) scale(0.100000,-0.100000)"
fill="rgb(249, 156, 219)" stroke="none">
<path d="M1212 4649 c-174 -24 -360 -86 -507 -170 -373 -214 -618 -567 -691
-997 -24 -140 -15 -381 19 -517 33 -130 77 -243 148 -382 317 -620 1104 -1347
2159 -1995 233 -143 211 -135 278 -97 123 69 396 239 567 354 756 509 1349
1066 1655 1555 132 211 232 458 266 656 20 117 15 379 -10 489 -93 418 -357
765 -723 953 -123 63 -183 86 -303 116 -311 79 -623 53 -918 -76 -190 -83
-415 -260 -534 -420 -28 -37 -54 -68 -58 -68 -4 0 -30 30 -57 68 -191 255
-511 454 -834 517 -101 20 -356 28 -457 14z"/>
</g>
</svg>
